<svg width="90" height="35" viewBox="0 0 90 35" fill="none" xmlns="http://www.w3.org/2000/svg">
<g clip-path="url(#clip0_601_19674)">
<path d="M12.2628 10.9012C11.2664 10.3434 10.1978 10.0503 9.10949 10.0503C8.02336 10.0481 7.03796 10.3456 6.29781 11.0019C6.06131 11.2097 5.83139 11.4503 5.60803 11.715C5.52701 11.5203 5.43066 11.3366 5.31679 11.1637C4.82847 10.4047 3.93285 10.0328 3.01752 10.0503C2.09343 10.0328 1.19562 10.4441 0.694161 11.2031C0.186131 11.9556 0.00437956 12.9094 0 14.0644V27.2637C0 28.3247 0.229927 29.2566 0.825547 29.95C1.36642 30.5953 2.16788 30.965 3.00876 30.965H3.05037C3.91095 30.9759 4.7365 30.6172 5.29708 29.9697C5.91022 29.2762 6.14891 28.3356 6.14891 27.2637V23.3044C6.14891 21.8978 6.1927 20.7144 6.2781 19.7562C6.3635 18.8112 6.51241 18.015 6.72044 17.3719C6.9219 16.7484 7.18248 16.3481 7.45401 16.1141C7.71022 15.8975 8.01898 15.775 8.53358 15.7706C8.89708 15.7684 9.37226 15.8537 9.94599 16.0484C10.627 16.2694 10.9642 16.3941 11.4066 16.4116C12.0898 16.4181 12.7314 16.0987 13.2153 15.6131C13.7518 15.0903 14.0365 14.3509 14.0255 13.5984C14.0453 12.4544 13.3248 11.4656 12.2672 10.9034L12.2628 10.9012ZM17.9387 3.2078C17.1328 3.20123 16.362 3.5228 15.7796 4.08717C15.162 4.6603 14.8314 5.48062 14.8401 6.33593C14.8314 7.23499 15.1358 8.08593 15.7774 8.66124C16.362 9.20155 17.135 9.48812 17.9387 9.48155H17.9672C18.7489 9.48155 19.5022 9.18187 20.0672 8.64374C20.6956 8.06843 20.9956 7.22405 20.9891 6.33593C20.9978 5.43249 20.6934 4.56842 20.0299 3.99967C19.4518 3.48998 18.7095 3.20123 17.9409 3.2078H17.9387ZM20.1285 11.0325C19.5679 10.3959 18.7445 10.0416 17.8883 10.0525C17.0321 10.0394 16.2088 10.3981 15.6569 11.0456C15.0679 11.7303 14.838 12.6534 14.838 13.7012V27.2637C14.838 28.3028 15.0679 29.2259 15.646 29.9237C16.1781 30.5866 16.9927 30.9672 17.8445 30.9672C17.8599 30.9672 17.873 30.9672 17.8861 30.9672C18.7467 30.9781 19.5745 30.615 20.135 29.9609C20.7438 29.2675 20.9825 28.3312 20.9825 27.2659V13.5612C20.9891 12.5856 20.7263 11.6909 20.1263 11.0303L20.1285 11.0325Z" fill="white"/>
<path d="M6.02193 3.2078C5.21609 3.20124 4.44528 3.5228 3.86499 4.08499C3.24747 4.6603 2.91463 5.48062 2.92558 6.33375C2.91463 7.23062 3.2212 8.08375 3.86061 8.65906C4.44528 9.19937 5.22047 9.48812 6.02193 9.47937H6.05039C6.82995 9.47937 7.58105 9.17969 8.1482 8.64156C8.77667 8.06625 9.07886 7.22187 9.0701 6.33375C9.08105 5.43031 8.77448 4.56624 8.11317 3.99749C7.53506 3.48562 6.79273 3.19905 6.02412 3.20562L6.02193 3.2078Z" fill="white"/>
<path d="M47.2052 10.0503C46.5417 10.0503 45.9 10.2144 45.4139 10.6562C45.0417 10.9953 44.7504 11.4175 44.584 11.8922C44.4482 12.2772 44.2862 12.8416 44.0847 13.6181L41.919 21.3378L40.0249 14.3575C39.7424 13.3556 39.5278 12.6556 39.3526 12.2028C39.1446 11.6625 38.792 11.1856 38.3365 10.7744C37.7694 10.2669 37.0139 10.0503 36.2103 10.0525C35.4154 10.0503 34.6643 10.2691 34.1037 10.7744C33.6504 11.1834 33.3 11.6472 33.1052 12.1809C32.9497 12.6031 32.7395 13.3097 32.4504 14.3487L30.5563 21.3247L28.4146 13.605C28.1059 12.4937 27.8256 11.6953 27.4906 11.1244C27.0395 10.3522 26.1504 10.0394 25.2657 10.0547C24.5059 10.0459 23.7679 10.3631 23.2511 10.9187C22.7431 11.4416 22.4409 12.1372 22.4475 12.8547C22.4584 13.4781 22.6643 14.2175 23.0365 15.3222L26.6803 26.6687C26.7833 26.9794 26.9212 27.3884 27.0986 27.9069C27.2891 28.4691 27.5168 28.9678 27.7862 29.4075C28.0774 29.8822 28.4672 30.2825 28.9402 30.5559C29.4329 30.8425 30.0088 30.9694 30.6132 30.9694C30.6395 30.9694 30.6636 30.9694 30.6898 30.9694C31.7979 30.9694 32.8249 30.5056 33.3482 29.5847C33.7971 28.8169 34.1672 27.7931 34.511 26.4653L36.2212 20.1172L37.9949 26.4806C38.2161 27.3184 38.4241 28.0141 38.6256 28.5697C38.8511 29.2062 39.219 29.7662 39.7073 30.2169C40.2789 30.7419 41.0519 30.9759 41.8709 30.9694C42.6657 30.9737 43.4103 30.7594 43.9752 30.2606C44.4373 29.8537 44.7986 29.3637 45.0241 28.8125C45.2125 28.3487 45.4643 27.6444 45.7884 26.6753L49.4716 15.3112C49.8198 14.2984 50.0168 13.5219 50.0212 12.8525C50.0278 12.1153 49.7168 11.4 49.1869 10.8816C48.6657 10.3544 47.9475 10.0459 47.2052 10.0525V10.0503Z" fill="white"/>
<path d="M66.3439 22.8165C65.7898 22.8165 65.2293 22.9543 64.8023 23.3393C64.2176 23.9146 63.7665 24.3521 63.4271 24.6628C63.1074 24.9581 62.7526 25.2403 62.365 25.5006C62.0081 25.7434 61.6534 25.9119 61.2942 26.0191C60.9351 26.1262 60.5212 26.1853 60.0526 26.1853C59.3891 26.1831 58.8242 26.0212 58.2833 25.6844C57.7599 25.3584 57.3329 24.875 56.9825 24.1618C56.7439 23.6696 56.5796 23.1162 56.503 22.4906H64.4431C65.7023 22.4884 66.738 22.3112 67.5745 21.8584C68.6059 21.2918 68.9869 20.1303 68.9782 18.8221C68.9782 17.4025 68.6278 16.0046 67.9468 14.6659C67.2526 13.2878 66.1906 12.159 64.8154 11.3103C63.4096 10.4353 61.7344 10.0131 59.8555 10.0131C58.4081 10.0131 57.0636 10.2603 55.8439 10.7612C54.6263 11.26 53.5796 11.995 52.7366 12.9465C51.8935 13.8937 51.2628 15.0246 50.8358 16.3153C50.411 17.6037 50.1986 18.9928 50.1986 20.4715C50.1986 23.5865 51.0548 26.1831 52.8285 28.095C54.6001 30.0178 57.1139 30.9628 60.149 30.9628H60.1818C61.522 30.9628 62.7373 30.7769 63.8169 30.3919C64.8614 30.02 65.7548 29.5431 66.4862 28.9437C67.1935 28.3662 67.7453 27.7428 68.1263 27.0581C68.4855 26.4106 68.7066 25.7937 68.711 25.1572C68.7176 24.5206 68.5008 23.8709 68.019 23.4334C67.5701 23.009 66.9548 22.8078 66.3395 22.8143L66.3439 22.8165ZM57.5541 15.8996C58.1431 15.25 58.7825 14.9634 59.7066 14.9525C60.7008 14.9634 61.3665 15.2565 61.9424 15.8865C62.3782 16.37 62.7132 17.1159 62.884 18.1637H56.5731C56.768 17.1421 57.1139 16.3962 57.5541 15.8996Z" fill="white"/>
<path d="M88.8415 14.9437C88.1715 13.4059 87.1926 12.1809 85.9182 11.3409C84.6503 10.5009 83.1591 10.0831 81.5277 10.0853C80.1284 10.0853 78.8934 10.35 77.8598 10.9275C77.3934 11.1878 76.9357 11.5028 76.4868 11.8659V6.52841C76.4868 5.54841 76.2788 4.68216 75.7489 4.01278C75.2233 3.33466 74.3759 2.98684 73.5065 2.99997C72.6481 2.98247 71.8072 3.37403 71.3058 4.06528C70.7824 4.77184 70.5919 5.67528 70.5897 6.73403V27.4366C70.5897 28.4362 70.7978 29.3134 71.3496 29.9828C71.8576 30.6128 72.6437 30.965 73.4605 30.965H73.5065C74.3321 30.9759 75.1313 30.6259 75.67 30.0047C75.9525 29.6853 76.154 29.3112 76.2853 28.9C76.2853 28.9 76.2853 28.9 76.2853 28.9022C76.6379 29.2478 77.0452 29.5737 77.5138 29.8822C78.0262 30.2212 78.6262 30.4794 79.3007 30.6719C79.9905 30.8666 80.7197 30.9628 81.4817 30.9628C82.7299 30.9628 83.9058 30.6937 84.9634 30.1512C86.0167 29.6153 86.9211 28.8453 87.6503 27.8741C88.3773 26.905 88.9226 25.7719 89.2926 24.4922C89.6627 23.2081 89.8467 21.8147 89.8467 20.314C89.8445 18.2818 89.5204 16.4837 88.8437 14.9393L88.8415 14.9437ZM82.6269 24.4222C81.9065 25.3103 81.2124 25.6537 80.3386 25.6647C79.2153 25.6516 78.4423 25.2841 77.7481 24.4506C77.089 23.639 76.6992 22.39 76.6992 20.6137C76.6992 19.4106 76.881 18.4087 77.2138 17.6015C77.5576 16.7768 77.9956 16.1993 78.5277 15.8122C79.0642 15.4206 79.6357 15.2368 80.3364 15.2325C81.0109 15.2368 81.5364 15.4184 82.0248 15.7947C82.5175 16.1818 82.916 16.7375 83.216 17.5337C83.516 18.319 83.6759 19.299 83.6759 20.4759C83.6759 22.2981 83.2839 23.5887 82.6226 24.4222H82.6269Z" fill="white"/>
</g>
<defs>
<clipPath id="clip0_601_19674">
<rect width="90" height="28" fill="white" transform="translate(0 3)"/>
</clipPath>
</defs>
</svg>
