<svg width="150" height="31" viewBox="0 0 150 31" fill="none" xmlns="http://www.w3.org/2000/svg">
<g clip-path="url(#clip0_1601_12736)">
<path d="M31.5099 5.25425C31.5099 5.25425 31.5099 5.24316 31.5099 5.23761C31.5099 5.2279 31.5099 5.21819 31.507 5.20848C31.5056 5.18906 31.5014 5.17103 31.4971 5.15299C31.4971 5.14745 31.4971 5.1419 31.4943 5.13774C31.4943 5.13496 31.4915 5.13219 31.4915 5.12941C31.4844 5.10583 31.4759 5.08225 31.4646 5.06006C31.4646 5.05729 31.4632 5.05451 31.4618 5.05312C31.449 5.02954 31.4349 5.00874 31.4193 4.98793C31.4137 4.981 31.408 4.97406 31.4009 4.96713C31.3896 4.95325 31.3769 4.94077 31.3642 4.92967C31.3571 4.92274 31.35 4.91719 31.3415 4.91164C31.3274 4.90054 31.3132 4.89084 31.2977 4.88113C31.2906 4.87696 31.2835 4.87142 31.275 4.86725C31.2567 4.85755 31.2369 4.84922 31.217 4.84229C31.2114 4.8409 31.2057 4.83813 31.2001 4.83535H31.1972L15.9289 0.0207743C15.919 0.0180001 15.9091 0.0166131 15.8992 0.0138389C15.8907 0.0110647 15.8808 0.00967763 15.8723 0.00690345C15.8455 0.00135511 15.8186 -0.00141907 15.7903 -0.00141907C15.7634 -0.00141907 15.7365 0.00135511 15.7097 0.00690345C15.6998 0.00829054 15.6913 0.0110647 15.6828 0.0138389C15.6729 0.0166131 15.663 0.0180001 15.6531 0.0207743L0.314024 4.83258C0.127307 4.89084 0 5.06145 0 5.25425V25.7457C0 25.7457 0 25.7568 0 25.7623C0 25.772 0 25.7817 0.00282904 25.7915C0.00424356 25.8109 0.00848712 25.8289 0.0127307 25.8483C0.0127307 25.8539 0.0127307 25.8594 0.0155597 25.8636C0.0155597 25.8664 0.0183888 25.8691 0.0183888 25.8719C0.0254614 25.8969 0.035363 25.9205 0.0466792 25.9426C0.0466792 25.944 0.0480937 25.9468 0.0495082 25.9482C0.0622389 25.9718 0.0763841 25.994 0.0933583 26.0148C0.0990164 26.0217 0.104674 26.0273 0.110333 26.0328C0.123063 26.0467 0.135794 26.0606 0.149939 26.073C0.157012 26.0786 0.16267 26.0841 0.169742 26.0897C0.183888 26.1008 0.199447 26.1119 0.216422 26.1216C0.223494 26.1257 0.230567 26.1299 0.237639 26.1341C0.256028 26.1438 0.275831 26.1521 0.295635 26.1604C0.301293 26.1618 0.305536 26.1646 0.311194 26.1674C0.311194 26.1674 0.314024 26.1674 0.315438 26.1687L15.5371 30.9431C15.6022 30.9792 15.6757 31.0014 15.7563 31.0014C15.7563 31.0014 15.7648 31.0014 15.7705 31.0014C15.7776 31.0014 15.786 31.0027 15.7931 31.0027C15.8143 31.0027 15.837 31.0014 15.8582 30.9972C15.8638 30.9972 15.8709 30.9944 15.8766 30.9944C15.8921 30.9916 15.9077 30.9889 15.9218 30.9833C15.9247 30.9833 15.9289 30.9833 15.9317 30.9805L31.1987 26.1687H31.2015C31.2128 26.1632 31.2241 26.159 31.2354 26.1535C31.2468 26.1493 31.2581 26.1452 31.268 26.1396C31.2765 26.1355 31.2849 26.1299 31.2934 26.1244C31.3047 26.1174 31.3175 26.1105 31.3288 26.1022C31.3373 26.0966 31.3444 26.0897 31.3528 26.0827C31.3627 26.0744 31.3741 26.0661 31.3825 26.0564C31.391 26.0481 31.3967 26.0397 31.4038 26.0314C31.4123 26.0217 31.4207 26.0134 31.4278 26.0023C31.4349 25.994 31.4391 25.9843 31.4448 25.9746C31.4519 25.9635 31.4589 25.9524 31.4646 25.9413C31.4688 25.9316 31.4731 25.9232 31.4759 25.9135C31.4816 25.901 31.4872 25.8872 31.4915 25.8733C31.4915 25.8705 31.4943 25.8677 31.4957 25.8636C31.4971 25.858 31.4971 25.8525 31.4985 25.8483C31.5028 25.8303 31.5056 25.8109 31.5084 25.7928C31.5084 25.7831 31.5099 25.7734 31.5113 25.7637C31.5113 25.7582 31.5113 25.7526 31.5113 25.7471V5.25425H31.5099ZM0.903878 5.83544L10.4745 8.41681L0.903878 24.1408V5.83544ZM15.3306 8.80935L11.8579 7.87307L15.3376 2.15411L15.3292 8.80935H15.3306ZM15.3306 9.72761L15.3164 21.2779L1.41593 25.0272L11.377 8.66094L15.3277 9.72761H15.3306ZM16.2189 22.2017L19.7368 23.1504L16.2104 28.9956L16.2189 22.2017V22.2017ZM16.2189 21.2834L16.233 9.71374L30.101 5.97138L20.2121 22.3598L16.2175 21.282L16.2189 21.2834ZM16.2344 8.79548L16.2444 1.05138L29.48 5.22235L16.2359 8.79548H16.2344ZM10.9555 7.62894L2.03549 5.22235L14.868 1.19702L10.954 7.62756L10.9555 7.62894ZM15.315 22.1961L15.3051 29.9402L2.03549 25.7776L15.3136 22.1961H15.315ZM20.6393 23.3946L29.4786 25.779L16.7875 29.7793L20.6393 23.3946ZM21.116 22.6039L30.606 6.87298V25.1645L21.1145 22.6039H21.116Z" fill="black"/>
<path d="M85.9449 9.51265H83.734V21.7967H85.9449V9.51265Z" fill="black"/>
<path d="M100.585 14.5186C98.6317 14.2787 97.8353 13.7363 97.8353 12.6447C97.8353 11.553 98.7633 10.9774 100.381 10.9774C102 10.9774 103.011 11.6099 103.011 12.7127V12.8347H105.117V12.7127C105.117 10.5807 103.267 9.20193 100.403 9.20193C97.5383 9.20193 95.5834 10.5987 95.5834 12.678C95.5834 14.7572 97.0941 15.9182 100.202 16.2567C102.42 16.4966 103.284 17.032 103.284 18.1653C103.284 19.2985 102.264 20.0032 100.488 20.0032C98.7109 20.0032 97.544 19.2958 97.544 18.1126V17.9905H95.3755V18.1126C95.3755 20.35 97.3813 21.7953 100.488 21.7953C103.594 21.7953 105.537 20.3638 105.537 18.1473C105.537 16.0833 103.964 14.9306 100.587 14.5173L100.585 14.5186Z" fill="black"/>
<path d="M144.104 9.51403L144.07 9.44467H143.12L137.18 21.5526L137.169 21.7967H139.46L140.602 19.3499L143.587 13.359L146.72 19.6883L147.687 21.7967H150V21.6066L144.104 9.51403Z" fill="black"/>
<path d="M73.3443 13.4367C73.3443 11.0537 71.4517 9.51265 68.525 9.51265H63.6223V11.2534H68.4628C70.1206 11.2534 71.0726 12.0552 71.0726 13.4534C71.0726 14.8515 70.1291 15.688 68.484 15.688H63.6223V21.7967H65.8332V17.4107H68.5024L71.5903 21.7967H73.9497V21.5664L70.7034 17.0737C72.3612 16.4606 73.3443 15.1109 73.3443 13.4353V13.4367Z" fill="black"/>
<path d="M117.531 18.3706H115.32V21.7967H117.531V18.3706Z" fill="black"/>
<path d="M128.488 18.3706H126.277V21.7967H128.488V18.3706Z" fill="black"/>
<path d="M127.576 9.47797L121.893 15.8142L116.248 9.51958L116.211 9.47797H115.32V16.7865H117.533L117.513 13.9319L121.717 18.5745L121.753 18.6147H122.053L126.277 13.9375V16.8073H128.488V16.7865V13.3812V9.47797H127.576Z" fill="black"/>
<path d="M48.6836 9.51265H44.0524V21.7967H46.2633V11.2534H48.6425C50.4715 11.2534 51.5649 12.1398 51.5649 13.6254C51.5649 15.1109 50.4729 15.9973 48.6425 15.9973H48.0965V17.7547H48.6836C51.7658 17.7547 53.8367 16.0888 53.8367 13.6087C53.8367 11.1286 51.7658 9.51265 48.6836 9.51265V9.51265Z" fill="black"/>
</g>
<defs>
<clipPath id="clip0_1601_12736">
<rect width="150" height="31" fill="white"/>
</clipPath>
</defs>
</svg>
