<svg width="22" height="22" viewBox="0 0 22 22" fill="none" xmlns="http://www.w3.org/2000/svg">
<g clip-path="url(#clip0_4217_23992)">
<path d="M6.32382 3.87912L0.714355 18.1209H2.71226L4.46521 13.6703H10.414L12.167 18.1209H14.1649L8.55545 3.87912H6.32382ZM5.16546 11.8901L7.43916 6.11775L9.71286 11.8901H5.16546Z" fill="#333333"/>
<path d="M17.4148 7.04395H18.0358C18.091 7.04395 18.1186 7.07105 18.1186 7.12526V14.2813C18.1186 14.3355 18.091 14.3626 18.0358 14.3626H17.4148C17.3596 14.3626 17.332 14.3355 17.332 14.2813V7.12526C17.332 7.07105 17.3596 7.04395 17.4148 7.04395Z" fill="#333333"/>
<path d="M14.2476 10.317H21.2029C21.2581 10.317 21.2857 10.3441 21.2857 10.3983V11.0082C21.2857 11.0624 21.2581 11.0895 21.2029 11.0895H14.2476C14.1924 11.0895 14.1648 11.0624 14.1648 11.0082V10.3983C14.1648 10.3441 14.1924 10.317 14.2476 10.317Z" fill="#333333"/>
</g>
<defs>
<clipPath id="clip0_4217_23992">
<rect width="20.5714" height="20.5714" fill="white" transform="translate(0.714355 0.714294)"/>
</clipPath>
</defs>
</svg>
