<svg width="22" height="22" viewBox="0 0 22 22" fill="none" xmlns="http://www.w3.org/2000/svg">
<g clip-path="url(#clip0_4263_18786)">
<path d="M8.66239 14.3515V7.64895C8.66253 7.56509 8.68522 7.48281 8.72809 7.41073C8.77096 7.33866 8.83243 7.27944 8.90605 7.23928C8.97967 7.19912 9.06273 7.17951 9.14654 7.18249C9.23035 7.18547 9.31181 7.21093 9.38239 7.25622L14.5963 10.6066C14.6623 10.6489 14.7167 10.7071 14.7543 10.7759C14.7919 10.8447 14.8116 10.9218 14.8116 11.0002C14.8116 11.0786 14.7919 11.1558 14.7543 11.2246C14.7167 11.2934 14.6623 11.3516 14.5963 11.3939L9.38239 14.7452C9.31181 14.7904 9.23035 14.8159 9.14654 14.8189C9.06273 14.8219 8.97967 14.8023 8.90605 14.7621C8.83243 14.7219 8.77096 14.6627 8.72809 14.5906C8.68522 14.5186 8.66253 14.4354 8.66239 14.3515Z" fill="#3593C9"/>
<path fill-rule="evenodd" clip-rule="evenodd" d="M11.0001 2.11695C8.64412 2.11695 6.38466 3.05285 4.71876 4.71876C3.05285 6.38466 2.11695 8.64412 2.11695 11.0001C2.11695 13.356 3.05285 15.6155 4.71876 17.2814C6.38466 18.9473 8.64412 19.8832 11.0001 19.8832C13.356 19.8832 15.6155 18.9473 17.2814 17.2814C18.9473 15.6155 19.8832 13.356 19.8832 11.0001C19.8832 8.64412 18.9473 6.38466 17.2814 4.71876C15.6155 3.05285 13.356 2.11695 11.0001 2.11695ZM0.714355 11.0001C0.714355 5.31955 5.31955 0.714355 11.0001 0.714355C16.6806 0.714355 21.2858 5.31955 21.2858 11.0001C21.2858 16.6806 16.6806 21.2858 11.0001 21.2858C5.31955 21.2858 0.714355 16.6806 0.714355 11.0001Z" fill="#3593C9"/>
</g>
<defs>
<clipPath id="clip0_4263_18786">
<rect width="20.5714" height="20.5714" fill="white" transform="translate(0.714355 0.714355)"/>
</clipPath>
</defs>
</svg>
