<svg width="22" height="22" viewBox="0 0 22 22" fill="none" xmlns="http://www.w3.org/2000/svg">
<g clip-path="url(#clip0_3910_4896)">
<path d="M20.4629 0.714355H1.53715C1.08201 0.714355 0.714294 1.08207 0.714294 1.53721V20.4629C0.714294 20.9181 1.08201 21.2858 1.53715 21.2858H20.4629C20.918 21.2858 21.2857 20.9181 21.2857 20.4629V1.53721C21.2857 1.08207 20.918 0.714355 20.4629 0.714355ZM16.5363 8.16378C16.544 8.28464 16.544 8.41064 16.544 8.53407C16.544 12.3089 13.6692 16.6572 8.41572 16.6572C6.79572 16.6572 5.29401 16.1866 4.02887 15.3766C4.26029 15.4024 4.48144 15.4126 4.71801 15.4126C6.05515 15.4126 7.28429 14.9601 8.26401 14.1938C7.00915 14.1681 5.95487 13.3452 5.59487 12.2138C6.03458 12.2781 6.43058 12.2781 6.88315 12.1624C6.23702 12.0311 5.65626 11.6802 5.23954 11.1692C4.82281 10.6583 4.59583 10.0188 4.59715 9.3595V9.3235C4.97515 9.53693 5.42001 9.66807 5.88544 9.68607C5.49417 9.42531 5.1733 9.07204 4.95127 8.65758C4.72923 8.24311 4.6129 7.78026 4.61258 7.31007C4.61258 6.77778 4.75144 6.29178 5.00087 5.87007C5.71804 6.75293 6.61297 7.47501 7.62749 7.98935C8.642 8.5037 9.7534 8.79881 10.8894 8.8555C10.4857 6.91407 11.936 5.34293 13.6794 5.34293C14.5023 5.34293 15.2429 5.6875 15.7649 6.24293C16.4103 6.12207 17.0274 5.88036 17.5777 5.55635C17.3643 6.21721 16.9169 6.77521 16.3229 7.1275C16.8989 7.06578 17.4543 6.90636 17.9686 6.68264C17.5803 7.2535 17.0943 7.76007 16.5363 8.16378Z" fill="#2E81B0"/>
</g>
<defs>
<clipPath id="clip0_3910_4896">
<rect width="20.5714" height="20.5714" fill="white" transform="translate(0.714294 0.714355)"/>
</clipPath>
</defs>
</svg>
