<svg width="14" height="14" viewBox="0 0 14 14" fill="none" xmlns="http://www.w3.org/2000/svg">
<g clip-path="url(#clip0_3721_564)">
<mask id="path-1-inside-1_3721_564" fill="white">
<path fill-rule="evenodd" clip-rule="evenodd" d="M7.39423 3L13.8571 3L13.8571 9.32482H12.9339L12.9339 4.54235L7.39423 9.96363L4.62442 7.25299L0.796529 11L0.142853 10.3603L4.62442 5.97538L7.39423 8.68602L12.2811 3.90355L7.39423 3.90355V3Z"/>
</mask>
<path fill-rule="evenodd" clip-rule="evenodd" d="M7.39423 3L13.8571 3L13.8571 9.32482H12.9339L12.9339 4.54235L7.39423 9.96363L4.62442 7.25299L0.796529 11L0.142853 10.3603L4.62442 5.97538L7.39423 8.68602L12.2811 3.90355L7.39423 3.90355V3Z" fill="#1E986F"/>
<path d="M7.39423 3V1.4L5.79423 1.4V3L7.39423 3ZM13.8571 3L15.4571 3V1.4L13.8571 1.4V3ZM13.8571 9.32482V10.9248L15.4571 10.9248V9.32482L13.8571 9.32482ZM12.9339 9.32482H11.3339V10.9248H12.9339V9.32482ZM12.9339 4.54235H14.5339V0.737837L11.8148 3.39883L12.9339 4.54235ZM7.39423 9.96363L6.27514 11.1072L7.39423 12.2023L8.51332 11.1072L7.39423 9.96363ZM4.62442 7.25299L5.74351 6.10947L4.62428 5.01416L3.50519 6.10961L4.62442 7.25299ZM0.796529 11L-0.32256 12.1435L0.796664 13.2388L1.91576 12.1434L0.796529 11ZM0.142853 10.3603L-0.976119 9.21665L-2.14484 10.3602L-0.976237 11.5038L0.142853 10.3603ZM4.62442 5.97538L5.74351 4.83186L4.62453 3.73679L3.50544 4.83174L4.62442 5.97538ZM7.39423 8.68602L6.27514 9.82954L7.39423 10.9247L8.51332 9.82954L7.39423 8.68602ZM12.2811 3.90355L13.4002 5.04707L16.2036 2.30355L12.2811 2.30355V3.90355ZM7.39423 3.90355L5.79423 3.90355V5.50355L7.39423 5.50355V3.90355ZM7.39423 4.6L13.8571 4.6V1.4L7.39423 1.4V4.6ZM12.2571 3L12.2571 9.32482L15.4571 9.32482L15.4571 3L12.2571 3ZM13.8571 7.72482H12.9339L12.9339 10.9248H13.8571L13.8571 7.72482ZM14.5339 9.32482L14.5339 4.54235H11.3339L11.3339 9.32482L14.5339 9.32482ZM11.8148 3.39883L6.27514 8.82011L8.51332 11.1072L14.053 5.68587L11.8148 3.39883ZM8.51332 8.82011L5.74351 6.10947L3.50533 8.39651L6.27514 11.1072L8.51332 8.82011ZM3.50519 6.10961L-0.322698 9.85661L1.91576 12.1434L5.74364 8.39638L3.50519 6.10961ZM1.91562 9.85648L1.26194 9.21677L-0.976237 11.5038L-0.32256 12.1435L1.91562 9.85648ZM1.26182 11.5039L5.74339 7.11901L3.50544 4.83174L-0.976119 9.21665L1.26182 11.5039ZM3.50533 7.1189L6.27514 9.82954L8.51332 7.5425L5.74351 4.83186L3.50533 7.1189ZM8.51332 9.82954L13.4002 5.04707L11.162 2.76003L6.27514 7.5425L8.51332 9.82954ZM12.2811 2.30355L7.39423 2.30355V5.50355H12.2811V2.30355ZM8.99423 3.90355V3L5.79423 3V3.90355L8.99423 3.90355Z" fill="#1E986F" mask="url(#path-1-inside-1_3721_564)"/>
</g>
<defs>
<clipPath id="clip0_3721_564">
<rect width="13.7143" height="13.7143" fill="white" transform="translate(0.142853 0.142853)"/>
</clipPath>
</defs>
</svg>
