<svg width="22" height="22" viewBox="0 0 22 22" fill="none" xmlns="http://www.w3.org/2000/svg">
<g clip-path="url(#clip0_3910_4893)">
<path d="M20.4629 0.714355H1.53715C1.08201 0.714355 0.714294 1.08207 0.714294 1.53721V20.4629C0.714294 20.9181 1.08201 21.2858 1.53715 21.2858H20.4629C20.918 21.2858 21.2857 20.9181 21.2857 20.4629V1.53721C21.2857 1.08207 20.918 0.714355 20.4629 0.714355ZM18.0869 6.71864H16.4437C15.1554 6.71864 14.906 7.33064 14.906 8.23064V10.2132H17.9814L17.5803 13.3169H14.906V21.2858H11.6994V13.3195H9.01744V10.2132H11.6994V7.92464C11.6994 5.26836 13.322 3.82064 15.6929 3.82064C16.8294 3.82064 17.804 3.9055 18.0894 3.94407V6.71864H18.0869Z" fill="#2E81B0"/>
</g>
<defs>
<clipPath id="clip0_3910_4893">
<rect width="20.5714" height="20.5714" fill="white" transform="translate(0.714294 0.714355)"/>
</clipPath>
</defs>
</svg>
