<svg width="21" height="21" viewBox="0 0 21 21" fill="none" xmlns="http://www.w3.org/2000/svg">
<path d="M10.2857 0C10.6267 0 10.9537 0.135459 11.1949 0.376577C11.436 0.617695 11.5714 0.944722 11.5714 1.28571V9H19.2857C19.6267 9 19.9537 9.13546 20.1949 9.37658C20.436 9.6177 20.5714 9.94472 20.5714 10.2857C20.5714 10.6267 20.436 10.9537 20.1949 11.1949C19.9537 11.436 19.6267 11.5714 19.2857 11.5714H11.5714V19.2857C11.5714 19.6267 11.436 19.9537 11.1949 20.1949C10.9537 20.436 10.6267 20.5714 10.2857 20.5714C9.94472 20.5714 9.6177 20.436 9.37658 20.1949C9.13546 19.9537 9 19.6267 9 19.2857V11.5714H1.28571C0.944722 11.5714 0.617695 11.436 0.376577 11.1949C0.135459 10.9537 0 10.6267 0 10.2857C0 9.94472 0.135459 9.6177 0.376577 9.37658C0.617695 9.13546 0.944722 9 1.28571 9H9V1.28571C9 0.944722 9.13546 0.617695 9.37658 0.376577C9.6177 0.135459 9.94472 0 10.2857 0V0Z" fill="#F37021"/>
</svg>
