<svg width="22" height="22" viewBox="0 0 22 22" fill="none" xmlns="http://www.w3.org/2000/svg">
<g clip-path="url(#clip0_3910_4890)">
<path d="M10.9972 7.57004C9.10857 7.57004 7.56728 9.11137 7.56728 11.0001C7.56728 12.8888 9.10857 14.4301 10.9972 14.4301C12.8859 14.4301 14.4272 12.8888 14.4272 11.0001C14.4272 9.11137 12.8859 7.57004 10.9972 7.57004ZM21.2846 11.0001C21.2846 9.57968 21.2974 8.17216 21.2177 6.75434C21.1379 5.10752 20.7622 3.64596 19.558 2.44172C18.3512 1.2349 16.8923 0.861791 15.2455 0.782023C13.8251 0.702255 12.4176 0.715121 10.9998 0.715121C9.57945 0.715121 8.17196 0.702255 6.75417 0.782023C5.10737 0.861791 3.64584 1.23747 2.44162 2.44172C1.23483 3.64853 0.861728 5.10752 0.781961 6.75434C0.702194 8.17473 0.71506 9.58225 0.71506 11.0001C0.71506 12.4179 0.702194 13.828 0.781961 15.2458C0.861728 16.8926 1.2374 18.3542 2.44162 19.5584C3.64842 20.7652 5.10737 21.1383 6.75417 21.2181C8.17453 21.2979 9.58203 21.285 10.9998 21.285C12.4202 21.285 13.8277 21.2979 15.2455 21.2181C16.8923 21.1383 18.3538 20.7627 19.558 19.5584C20.7648 18.3516 21.1379 16.8926 21.2177 15.2458C21.3 13.828 21.2846 12.4205 21.2846 11.0001ZM10.9972 16.2776C8.07675 16.2776 5.71978 13.9206 5.71978 11.0001C5.71978 8.07952 8.07675 5.7225 10.9972 5.7225C13.9177 5.7225 16.2747 8.07952 16.2747 11.0001C16.2747 13.9206 13.9177 16.2776 10.9972 16.2776ZM16.4909 6.7389C15.809 6.7389 15.2583 6.18825 15.2583 5.50636C15.2583 4.82447 15.809 4.27381 16.4909 4.27381C17.1727 4.27381 17.7234 4.82447 17.7234 5.50636C17.7236 5.66828 17.6918 5.82864 17.63 5.97827C17.5681 6.1279 17.4773 6.26386 17.3628 6.37835C17.2483 6.49285 17.1124 6.58363 16.9628 6.6455C16.8131 6.70737 16.6528 6.73911 16.4909 6.7389Z" fill="#2E81B0"/>
</g>
<defs>
<clipPath id="clip0_3910_4890">
<rect width="20.5714" height="20.5714" fill="white" transform="translate(0.714294 0.714355)"/>
</clipPath>
</defs>
</svg>
