<svg width="32" height="32" viewBox="0 0 32 32" fill="none" xmlns="http://www.w3.org/2000/svg">
<g clip-path="url(#clip0_642_12008)">
<path d="M26.3764 8.16742L20.5156 2.45312C20.4057 2.34597 20.2569 2.28571 20.1012 2.28571H7.7935C6.50059 2.28571 5.44922 3.31079 5.44922 4.57144V27.4286C5.44922 28.6892 6.50059 29.7143 7.79356 29.7143H24.2038C25.4967 29.7143 26.5481 28.6892 26.5481 27.4285V8.5714C26.5481 8.41963 26.4863 8.27456 26.3764 8.16742ZM20.6873 4.23662L24.5472 8.00001H21.8594C21.2133 8.00001 20.6873 7.48717 20.6873 6.85717V4.23662ZM25.376 27.4285C25.376 28.0585 24.85 28.5714 24.2038 28.5714H7.79356C7.14741 28.5714 6.62142 28.0585 6.62142 27.4285V4.57144C6.62142 3.94144 7.14741 3.4286 7.79356 3.4286H19.5152V6.85717C19.5152 8.11776 20.5665 9.14285 21.8595 9.14285H25.376V27.4285Z" fill="#458AF2"/>
<path d="M18.9869 19.0607C18.4443 18.6444 17.9286 18.2165 17.5852 17.8816C17.1388 17.4464 16.741 17.0245 16.3953 16.6227C16.9345 14.9983 17.1709 14.1607 17.1709 13.7142C17.1709 11.8175 16.468 11.4285 15.4126 11.4285C14.6108 11.4285 13.6544 11.8347 13.6544 13.7689C13.6544 14.6216 14.1334 15.6568 15.083 16.8599C14.8506 17.5513 14.5776 18.3487 14.2708 19.2477C14.1231 19.6791 13.9629 20.0786 13.7934 20.448C13.6555 20.5078 13.5216 20.5686 13.3922 20.6316C12.9264 20.8588 12.4839 21.063 12.0736 21.2527C10.202 22.1166 8.9657 22.688 8.9657 23.8163C8.9657 24.6355 9.87861 25.1427 10.7239 25.1427C11.8137 25.1427 13.4592 23.7236 14.6611 21.333C15.9088 20.8531 17.4599 20.4976 18.6841 20.275C19.6651 21.0105 20.7486 21.7142 21.2734 21.7142C22.7266 21.7142 23.0316 20.895 23.0316 20.208C23.0316 18.857 21.4485 18.857 20.6873 18.857C20.4509 18.8571 19.8168 18.9251 18.9869 19.0607ZM10.7239 23.9999C10.3891 23.9999 10.1625 23.8459 10.1378 23.8163C10.1378 23.4112 11.377 22.8386 12.5755 22.2851C12.6516 22.2499 12.7289 22.2148 12.8073 22.1785C11.927 23.4229 11.0565 23.9999 10.7239 23.9999ZM14.8265 13.7689C14.8265 12.5714 15.2077 12.5714 15.4126 12.5714C15.827 12.5714 15.9987 12.5714 15.9987 13.7142C15.9987 13.9553 15.8339 14.558 15.5322 15.4988C15.072 14.808 14.8265 14.2159 14.8265 13.7689ZM15.2758 19.9106C15.3125 19.8113 15.348 19.7109 15.3823 19.6093C15.5998 18.9731 15.7955 18.4017 15.9701 17.8872C16.2133 18.1484 16.4755 18.4157 16.7565 18.6896C16.8664 18.7968 17.1388 19.0379 17.5017 19.3397C16.7793 19.4932 16.0107 19.6835 15.2758 19.9106ZM21.8595 20.2081C21.8595 20.4648 21.8595 20.5713 21.3158 20.5747C21.1561 20.5412 20.7869 20.3292 20.3313 20.0267C20.4967 20.0089 20.6186 20 20.6873 20C21.5533 20 21.7988 20.0825 21.8595 20.2081Z" fill="#458AF2"/>
</g>
<defs>
<clipPath id="clip0_642_12008">
<rect width="27.4286" height="27.4286" fill="white" transform="translate(2.28516 2.28571)"/>
</clipPath>
</defs>
</svg>
